<svg width="32" height="32" viewBox="0 0 32 32" fill="none" xmlns="http://www.w3.org/2000/svg">
  <rect width="32" height="32" fill="#0A1628"/>
  <!-- BlueBench logomark scaled to fit square with padding -->
  <g transform="translate(5.5, 1) scale(0.07)">
    <path d="M299.832 0.115771L299.839 71.2872C299.84 99.1972 301.526 123.731 293.96 151.013C288.794 169.339 280.481 186.623 269.392 202.091C254.965 222.311 236.833 231.042 236.824 259.009C236.816 287.228 254.441 295.481 268.997 315.658C280.289 331.3 288.75 348.803 293.995 367.38C301.603 394.714 299.711 420.634 299.711 448.734L299.705 517.972L212.561 518C211.864 477.323 212.516 434.716 212.516 393.879C202.978 402.739 191.683 414.675 182.315 424.057L123.036 483.396L61.2798 421.457L130.913 351.635L179.873 302.666L0.00562594 302.729L2.35819e-05 215.223L179.839 215.207L61.2855 96.4274C80.9112 75.8952 102.911 54.6627 123.092 34.4409C152.341 64.351 182.82 94.4586 212.51 124.004L212.499 -3.82479e-06C240.959 0.59594 271.19 0.0567435 299.832 0.115771Z" fill="white"/>
  </g>
</svg>
